<?xml version="1.0" standalone="no"?>
<!DOCTYPE svg PUBLIC "-//W3C//DTD SVG 20010904//EN"
 "http://www.w3.org/TR/2001/REC-SVG-20010904/DTD/svg10.dtd">
<svg version="1.0" xmlns="http://www.w3.org/2000/svg"
 width="500.000000pt" height="500.000000pt" viewBox="0 0 500.000000 500.000000"
 preserveAspectRatio="xMidYMid meet">
<metadata>
Created by potrace 1.14, written by Peter Selinger 2001-2017
</metadata>
<g transform="translate(0.000000,500.000000) scale(0.100000,-0.100000)"
fill="#000000" stroke="none">
<path d="M449 4983 c-1 -32 2 -2898 4 -3828 l2 -910 183 -3 c164 -2 182 -4
183 -20 0 -9 0 -63 -1 -119 l-1 -103 1380 0 1379 0 89 31 c188 65 376 183 516
323 254 253 381 581 379 979 -1 222 -29 335 -132 536 -122 236 -316 430 -568
566 -51 27 -92 54 -92 60 0 6 14 24 31 41 17 16 59 63 93 104 187 224 319 460
380 680 27 98 38 166 40 265 7 261 -91 504 -286 706 -120 125 -207 192 -403
313 -60 37 -168 107 -239 156 -72 49 -198 123 -282 165 l-151 75 -1252 0
c-1184 0 -1251 -1 -1252 -17z m1398 -122 c31 -1 31 -1 30 -51 l-1 -50 -531 0
-532 0 3 -2027 3 -2028 -114 -120 c-63 -66 -115 -113 -115 -105 0 8 -3 997 -5
2197 l-5 2182 23 3 c17 2 1114 1 1244 -1z m1170 -42 c57 -26 103 -50 103 -53
0 -3 -250 -6 -555 -6 l-555 0 0 54 0 54 452 0 453 -1 102 -48z m-1177 -198
l36 -1 -2 -187 c-2 -104 -6 -467 -9 -808 -4 -341 -8 -735 -10 -875 -2 -140 -4
-412 -6 -604 -3 -300 -5 -352 -18 -366 -166 -174 -471 -498 -513 -543 -16 -17
-84 -89 -152 -161 -68 -72 -144 -153 -168 -179 l-45 -49 -1 504 c-1 592 -3
3225 -2 3250 0 9 8 18 17 20 13 2 682 1 873 -1z m403 -152 c-1 -85 -4 -386 -7
-669 -3 -283 -9 -758 -12 -1055 -6 -528 -11 -889 -13 -911 -1 -7 -40 -11 -117
-12 l-116 -1 6 542 c9 760 18 1561 21 1832 2 127 3 274 4 327 l1 97 33 3 c17
2 70 2 117 2 l85 -1 -2 -154z m1136 111 c80 -40 109 -61 172 -127 129 -135
208 -271 244 -421 87 -362 -110 -822 -526 -1233 l-128 -126 82 -28 c91 -31
268 -115 307 -145 l25 -20 -25 -20 c-31 -24 -28 -26 86 -65 68 -23 97 -39 131
-72 63 -63 153 -187 200 -278 34 -66 93 -213 93 -231 0 -5 -1682 5 -1688 10
-3 4 -2 381 3 781 2 149 7 538 10 865 7 668 13 1129 14 1146 1 8 125 12 453
12 l452 0 95 -48z m616 -453 c269 -342 246 -753 -68 -1221 -57 -85 -182 -241
-241 -299 l-27 -28 -74 45 c-40 24 -100 57 -133 72 l-60 28 88 101 c240 276
396 557 445 806 3 13 8 35 11 49 3 14 7 79 9 145 5 154 -30 331 -85 427 -6 10
-10 21 -10 25 0 10 104 -98 145 -150z m176 -2110 c100 -122 166 -238 215 -379
l23 -68 -105 0 c-76 0 -104 3 -105 13 -12 229 -29 303 -109 475 l-39 83 28
-23 c15 -13 57 -58 92 -101z m-1961 -395 c0 -66 -1 -69 -42 -112 -24 -25 -104
-111 -180 -190 -75 -80 -153 -163 -173 -185 -21 -22 -95 -101 -165 -175 -70
-74 -147 -155 -170 -180 -72 -77 -292 -309 -340 -359 -44 -47 -46 -47 -105
-45 -33 1 -66 2 -73 3 -10 1 -12 33 -11 140 l3 138 85 90 c166 174 369 388
401 423 31 33 209 223 370 393 41 43 84 90 94 103 19 23 24 24 163 24 l143 0
0 -68z m1493 57 l357 -3 1 -23 c1 -13 1 -35 2 -50 l1 -28 -540 2 c-965 4
-1174 6 -1175 12 -4 22 -5 78 -1 88 3 8 128 10 500 8 273 -2 658 -5 855 -6z
m174 -239 l183 0 -5 -37 c-36 -297 -135 -511 -325 -703 -127 -130 -256 -215
-433 -287 l-92 -37 -958 -1 c-526 0 -956 3 -955 7 2 3 57 64 123 134 66 70
135 143 153 163 19 20 98 103 175 185 78 82 149 157 157 166 9 10 78 84 155
165 77 81 162 172 190 201 l49 54 701 -4 c385 -3 782 -5 882 -6z m549 -128 c5
-530 -285 -956 -781 -1148 l-70 -27 -1252 -1 c-689 -1 -1253 3 -1253 7 0 5 19
29 42 53 l42 44 1025 0 c1097 0 1040 -2 1171 50 307 122 569 358 709 638 64
127 127 360 130 478 l1 31 118 -1 117 -1 1 -123z m-3608 -905 l-3 -32 -62 0
c-34 0 -59 2 -56 5 2 3 30 34 61 68 l57 64 3 -36 c2 -20 2 -51 0 -69z"/>
</g>
</svg>
